<svg fill="none" height="24" viewBox="0 0 25 24" width="25" xmlns="http://www.w3.org/2000/svg">
  <g clip-path="url(#clip0_578_2242)" id="icon/home-select">
    <path d="M19.4998 8.71L14.1668 4.562C13.6988 4.19791 13.1227 4.00023 12.5298 4.00023C11.9368 4.00023 11.3608 4.19791 10.8928 4.562L5.55879 8.71C5.23823 8.95928 4.97888 9.27853 4.80054 9.64335C4.6222 10.0082 4.52959 10.4089 4.52979 10.815V18.015C4.52979 18.5454 4.7405 19.0541 5.11557 19.4292C5.49064 19.8043 5.99935 20.015 6.52979 20.015H18.5298C19.0602 20.015 19.5689 19.8043 19.944 19.4292C20.3191 19.0541 20.5298 18.5454 20.5298 18.015V10.815C20.5298 9.992 20.1498 9.215 19.4998 8.71Z"
          fill="#0C4284"
          id="Vector" stroke="#0C4284" stroke-linecap="round" stroke-linejoin="round" stroke-width="1.5"/>
    <path d="M16.5 15C14.29 16.333 10.708 16.333 8.5 15" id="Vector_2" stroke="white" stroke-linecap="round"
          stroke-linejoin="round" stroke-width="1.5"/>
  </g>
  <defs>
    <clipPath id="clip0_578_2242">
      <rect fill="white" height="24" transform="translate(0.5)" width="24"/>
    </clipPath>
  </defs>
</svg>
